<?xml version="1.0" encoding="UTF-8"?>
<svg id="Layer_1" xmlns="http://www.w3.org/2000/svg" version="1.1" viewBox="0 0 960 960">
  <!-- Generator: Adobe Illustrator 30.6.0, SVG Export Plug-In . SVG Version: 2.1.4 Build 109)  -->
  <defs>
    <style>
      .st0 {
        fill: #10182a;
      }

      .st1 {
        fill: #0b4063;
      }

      .st1, .st2, .st3, .st4 {
        display: none;
      }

      .st2 {
        fill: #090a12;
      }

      .st3 {
        fill: #fff;
      }

      .st5 {
        fill: #e85a24;
      }
    </style>
  </defs>
  <rect class="st1" x="-20" y="-20" width="999.35" height="999.35"/>
  <g class="st4">
    <rect class="st2" x="5" y="5" width="950" height="950" rx="68.35" ry="68.35"/>
    <path class="st3" d="M886.65,960H73.35c-40.45,0-73.35-32.91-73.35-73.35V73.35C0,32.91,32.91,0,73.35,0h813.29c40.45,0,73.35,32.91,73.35,73.35v813.29c0,40.45-32.91,73.35-73.35,73.35ZM73.35,10c-34.93,0-63.35,28.42-63.35,63.35v813.29c0,34.93,28.42,63.35,63.35,63.35h813.29c34.93,0,63.35-28.42,63.35-63.35V73.35c0-34.93-28.42-63.35-63.35-63.35H73.35Z"/>
  </g>
  <g>
    <g>
      <path class="st5" d="M929.85,538.48c-1.71-13.13-4.92-24.81-9.22-37.92,5.85-23.76,5.43-47.63-1.25-71.04,9.94-40.37,4.35-81.16-16.64-121.27l-.06-.11c-48.97-90.84-156.05-135.97-215.52-154.79-65.76-20.8-135.26-31.35-206.57-31.35-1.41,0-2.82,0-4.24.01-82.04.48-162.76,14.95-233.44,41.84-62.5,23.78-114.84,57.17-151.43,96.64-47.24,51.86-64.74,110.2-50.71,168.9-6.74,23.53-7.16,47.47-1.23,71.23-.02.07-.05.14-.07.2-.18.54-.36,1.08-.52,1.64-22.83,63.85-8.77,132.49,38.6,188.37,29.73,35.07,69.65,64.8,118.65,88.35,41.6,20,88.92,35.25,140.64,45.33,39.24,7.65,80.58,12.05,126.38,13.46h.2s46.75-.44,46.75-.44h.28c104.13-3.88,202.58-28.99,277.24-70.73,25.36-14.18,46.65-29.05,65.11-45.46l.22-.19,25.45-25.45.18-.2c12.88-14.32,23.4-29.59,32.12-46.6,18.06-34.41,24.66-72.59,19.09-110.44Z"/>
      <path class="st5" d="M567.3,236.21c-2.51-1.46-5.19-2.21-7.96-2.21-3.06,0-5.5.88-7.46,1.59l-.75.27-106.29,37.29c-13.94,4.89-15.45,15.26-15.46,19.49l-.14,103.96c-.5-.01-.99-.02-1.49-.02-16.2,0-31.1,7.19-40.88,19.72-8.79,11.26-10.82,25.75-5.3,37.84,4.84,10.59,14.41,18.07,26.94,21.07,3.8.91,7.73,1.37,11.67,1.37,12.47,0,25.11-4.68,34.65-12.85,10.09-8.63,15.89-20.45,15.92-32.42l.23-98.39,64.11-22.3v45.55c-.5-.01-1.02-.02-1.53-.02-17.69,0-33.86,8.75-43.25,23.41l-.18.29-.17.3c-6.27,11.46-6.97,22.83-2.06,33.82,4.17,9.33,12.99,16.8,23.59,19.98,4.71,1.41,9.63,2.12,14.62,2.12,14.17,0,27.92-5.75,37.72-15.77,8.43-8.62,12.7-19.22,12.7-31.51l-.05-137.08c0-6.34-3.44-12.12-9.2-15.48Z"/>
    </g>
    <g>
      <path class="st0" d="M919.94,539.85c-1.77-13.69-5.38-25.93-9.73-38.94,6.37-23.75,5.97-47.81-1.2-71.2,10.75-40.74,4.29-79.72-15.13-116.83-41.1-76.25-129.16-124.51-209.74-150-67.17-21.25-137.19-31.29-207.74-30.88-77.8.46-157.32,13.56-229.95,41.18-54.23,20.63-108.05,51.37-147.59,94.03-41.54,45.6-63.42,101.05-47.74,162.41-7.05,22.91-7.58,46.59-1.6,69.69.58,2.23-.48,4.09-1.05,6.2-22.81,63.42-6.23,128.22,36.7,178.85,61.92,73.05,161.17,112.33,253.57,130.34,41.41,8.07,82.75,11.99,124.77,13.28l46.55-.45c92.5-3.44,192.09-24.37,272.73-69.46,22.82-12.76,43.88-26.9,63.34-44.21l25.06-25.05c12.26-13.64,22.33-28.23,30.7-44.56,16.94-32.27,23.37-68.31,18.04-104.42ZM85.26,338.5c7.68-17.64,17.92-33.24,30.7-47.74,60.13-68.24,160.66-106,248.98-121.16,107.77-18.5,223.66-11.43,326.93,25.19,52.19,18.51,104.14,46.31,142.95,85.87,14.58,14.86,26.97,30.69,36.25,49.44,31.89,64.51,9.22,125.99-40.44,173.45-18.18,17.38-37.96,31.88-59.7,44.53l-38.34,20.17c-1.56.31-1.81-.28-.51-1.19,16.64-10.17,31.83-21.72,46.02-35.18,15.29-14.5,27.76-30.54,37.34-49.19,19.29-37.57,18.17-81.56-3.36-117.9-9.84-16.6-21.64-30.89-36.12-43.96-38.9-35.1-90.11-57.86-140.48-72-15.96-4.24-31.03-8.2-48.26-11.01,1.63,4.99,2.93,9.46,3.14,14.89,62.99,12.03,132.16,37.12,179.17,81.05,36.9,34.49,56.92,81.83,38.3,130.9-12.69,33.45-39.03,60.28-68.23,80.47-18.37,12.7-37.34,23.62-58.04,32.57,17.82-11.2,34.72-22.9,49-38.34,32.29-33.89,46.87-78.19,25.6-121.89-7.92-16.27-18.91-29.74-32.31-42.07-35.92-33.06-86.03-52.56-133.55-63.67l-.2,14.14c55.4,12.36,126.28,43.71,152.58,96.09,12.05,24,12.18,51.08.79,75.27-18.84,39.98-62.48,68.67-103.33,85.36,13.03-10.45,25-20.32,34.29-33.97,9.37-13.77,15.59-29.14,15.78-46.06.61-54.92-53.04-90.09-100.67-106.69-.37,4.65-1.12,8.78-3.38,13.18,30.02,10.78,61.55,27.78,78.67,55.18,14.21,22.75,14.56,50.24.63,73.08-15.92,26.09-46.43,44.72-74.64,56.3-35.92,14.74-73.88,21.16-112.84,20.79-35.51-.34-69.9-6.01-102.97-18.55-20.24-7.67-38.83-17.48-55.68-30.75l-8.54-7.75c-27.41-24.89-35.69-62.59-15.09-94.1,18-27.54,49.81-44.63,80.76-54.83,7.36-9.65,16.78-15.37,27.58-20.86-27.35,4.5-52.16,14.27-75.56,27.66-31.21,18.92-58.09,46.75-58.85,84.91-.37,18.8,6.78,35.88,17.53,50.95,8.92,12.51,19.99,21.45,32.54,31.39-30.54-12.04-62.38-31.68-84.25-56.47-25.46-28.87-36.03-65.77-19.23-101.8,14.75-31.62,46-55.38,76.91-70.94,38.77-19.52,80.12-30.04,123-36.01l-.28-13.86c-71.56,9.68-156.75,36.07-200.9,95.3-13.82,18.55-21.61,40.23-21.18,63.43.67,36.12,22.91,67.8,49.54,90.72,8.48,7.3,16.81,13.88,26.4,19.35.23,1.05-.52,1.28-2.27.68-24.38-11.63-47.08-25.82-67.72-43.41-49.83-42.47-73.46-103.23-36.77-162.44,21.71-35.03,57.21-59.51,93.74-77.69,20.59-10.25,41.47-17.89,63.59-24.53,43.9-13.18,88.73-20.16,134.47-22.1l39.48-.31,34.36-12.27c-20.65-1.65-39.61-2.31-59.71-1.94-59.54,1-118.16,10.59-174.39,30.23-59.95,20.94-127.13,59.95-153.49,119.75-12.61,28.61-13.71,59.91-3.03,89.36,16.05,44.29,52.79,76.39,92.17,101.37-19.66-7.76-37.12-18-54.52-29.15-36.67-23.51-72.31-56.39-90.15-96.52-14.93-33.59-14.92-71-.26-104.68ZM123.33,536.31c50.5,42,114.51,70.46,177.97,87.07,50.62,13.25,101.97,20.1,154.13,21.87h52.35c55.04-1.96,109.22-9.77,162.27-24.99,62.56-17.95,124.8-46.54,173.45-90.04,17.42-15.37,31.59-32.2,44.69-53-1.79,46.59-30.66,87.8-65.26,118.1-44.15,38.66-99.8,64.16-155.96,80.86-61.94,18.41-125.89,26.69-190.61,26.17-52.69-.42-104.77-6.33-155.85-18.83-59.9-14.66-120.93-39.01-169.73-76.88-41.13-31.93-76.22-76.16-79.11-129.61,14.39,23.33,31.38,42.23,51.65,59.29ZM830.61,683.84c-67.52,63.25-169.73,94.28-260.47,105.79-83.84,10.63-169.06,6.15-251.33-12.99-73.71-17.15-153.78-51.38-204.56-108.42-27.65-31.06-45.23-69.11-43.34-111.04,24.38,41.58,60.23,73.57,100.07,98.72,27.23,17.19,55.79,30.61,86.07,41.7,77.87,28.52,164.4,39.89,247.11,37.32,87.17-2.71,178.5-22.17,256.02-62.5,49.88-25.95,99.26-64.24,127.69-113.31.04-1.75,1.81-1.82,1.47-.27,1.3,49.97-23.42,91.9-58.74,124.99Z"/>
      <path class="st0" d="M484.28,432.36c-1.42,13.92-6.22,25.65-15.12,35.52-23.86,26.47-68.28,29.03-92.21,3.16-4.36-4.72-7.22-9.72-9.52-16.04-14.35,9.25-27.15,21.12-33.25,36.28-10.63,26.41,1.61,51.12,23.24,68.04,14.15,11.06,29.79,19.12,47.68,24.72,49.92,15.62,103.36,15.36,152.54-.87,16.63-5.49,31.45-13.28,44.97-23.86,24.99-19.56,36.34-50.03,17.97-77.53-13.8-20.67-36.38-33.76-60.35-42.03-24.04,13.59-55.22,12.56-75.97-7.39Z"/>
      <path class="st0" d="M439.38,292.65l-.16,115.43c-16.61-4.41-34.04,1-44.47,14.36-6.19,7.92-8.29,18.33-4.09,27.52,3.75,8.2,11.37,13.39,20.17,15.5,24.18,5.78,49.87-12.18,49.92-34.2l.24-105.48,84.09-29.25v71.17c-17.81-4.94-36.59,1.98-46.35,17.22-4.33,7.9-5.64,16.11-1.7,24.93,2.82,6.31,9.09,12.01,17.33,14.48,14.84,4.44,31.5.01,42.33-11.05,6.72-6.87,9.85-14.99,9.85-24.52l-.05-137.08c0-3.33-2.18-5.65-4.23-6.84-2.78-1.62-4.87-.59-7.83.45l-106.29,37.29c-4.6,1.61-8.76,4.55-8.77,10.07Z"/>
    </g>
  </g>
</svg>